<svg xmlns="http://www.w3.org/2000/svg" enable-background="new 0 0 64 64" viewBox="0 0 64 64" id="Cart"><path fill="#004cff" d="M46.4,40H26c-0.5,0-0.9-0.3-1-0.8l-4-18c-0.1-0.3,0-0.6,0.2-0.8c0.2-0.2,0.5-0.4,0.8-0.4h29.5
			c0.6,0,1,0.4,1,1s-0.4,1-1,1H23.2l3.6,16h19.6c0.5,0,0.9-0.3,1-0.8l2.8-12.4c0.1-0.5,0.7-0.9,1.2-0.8c0.5,0.1,0.9,0.7,0.8,1.2
			l-2.8,12.4C49,39,47.8,40,46.4,40z" class="color666666 svgShape"></path><path fill="#004cff" d="M47 45H28.6c-1.4 0-2.6-1-2.9-2.3l-7.3-30.9c-.1-.5-.5-.8-1-.8H12c-.6 0-1-.4-1-1s.4-1 1-1h5.4c1.4 0 2.6 1 2.9 2.3l7.3 30.9c.1.5.5.8 1 .8H47c.6 0 1 .4 1 1S47.6 45 47 45zM31 55c-2.8 0-5-2.2-5-5s2.2-5 5-5 5 2.2 5 5S33.8 55 31 55zM31 47c-1.7 0-3 1.3-3 3s1.3 3 3 3 3-1.3 3-3S32.7 47 31 47zM44 55c-2.8 0-5-2.2-5-5s2.2-5 5-5 5 2.2 5 5S46.8 55 44 55zM44 47c-1.7 0-3 1.3-3 3s1.3 3 3 3 3-1.3 3-3S45.7 47 44 47z" class="color666666 svgShape"></path><path fill="#004cff" d="M37 37c-.6 0-1-.4-1-1V25c0-.6.4-1 1-1s1 .4 1 1v11C38 36.6 37.6 37 37 37zM42 37c-.1 0-.1 0-.2 0-.5-.1-.9-.6-.8-1.2l2-11c.1-.5.6-.9 1.2-.8.5.1.9.6.8 1.2l-2 11C42.9 36.7 42.5 37 42 37zM32 37c-.5 0-.9-.3-1-.8l-2-11c-.1-.5.3-1.1.8-1.2.5-.1 1.1.3 1.2.8l2 11c.1.5-.3 1.1-.8 1.2C32.1 37 32.1 37 32 37z" class="color666666 svgShape"></path></svg>