<svg width="82" height="76" viewBox="0 0 82 76" fill="none" xmlns="http://www.w3.org/2000/svg">
<path d="M19 20.0586H63C65.7614 20.0586 68 22.2972 68 25.0586L70 63.0586C70 65.82 67.7614 68.0586 65 68.0586H17C14.2386 68.0586 12 65.82 12 63.0586L14 25.0586C14 22.2972 16.2386 20.0586 19 20.0586Z" fill="#004CFF"/>
<path d="M25.919 30.7496V16.8697C25.919 11.4188 30.466 7 36.0751 7H45.3169C50.9259 7 55.473 11.4188 55.473 16.8697V30.7496" stroke="white" stroke-width="5" stroke-linecap="round"/>
<path d="M25.919 18.7496V16.8697C25.919 11.4188 30.466 7 36.0751 7H45.3169C50.9259 7 55.473 11.4188 55.473 16.8697V18.7496" stroke="#004CFF" stroke-width="5" stroke-linecap="round"/>
<path d="M42.4175 43.3626C43.3455 43.3626 44.0255 43.5386 44.4575 43.8906C44.8895 44.2426 45.1055 44.7226 45.1055 45.3306C45.1055 45.6986 45.0495 46.0506 44.9375 46.3866L42.7295 53.5626C42.6815 53.7546 42.6575 53.9226 42.6575 54.0666C42.6575 54.2746 42.6975 54.4426 42.7775 54.5706C42.8575 54.6826 42.9695 54.7946 43.1135 54.9066C43.2255 55.0186 43.3055 55.1146 43.3535 55.1946C43.4015 55.2586 43.4095 55.3466 43.3775 55.4586C43.2975 55.6666 43.1375 55.8186 42.8975 55.9146C42.6575 56.0106 42.2895 56.0586 41.7935 56.0586H36.3215C35.9055 56.0586 35.6015 55.9946 35.4095 55.8666C35.2175 55.7226 35.1535 55.5386 35.2175 55.3146C35.2815 55.1226 35.4495 54.9546 35.7215 54.8106C35.9615 54.6826 36.1615 54.5306 36.3215 54.3546C36.4815 54.1786 36.6175 53.8986 36.7295 53.5146L38.8175 46.5786C38.8655 46.4346 38.8895 46.3146 38.8895 46.2186C38.8895 46.0426 38.8495 45.9066 38.7695 45.8106C38.6895 45.6986 38.5695 45.5866 38.4095 45.4746C38.2495 45.3466 38.1375 45.2346 38.0735 45.1386C38.0095 45.0426 38.0015 44.9146 38.0495 44.7546C38.1455 44.3866 38.6495 44.0666 39.5615 43.7946C40.4735 43.5066 41.4255 43.3626 42.4175 43.3626ZM44.0255 38.0586C44.6495 38.0586 45.1695 38.2666 45.5855 38.6826C46.0015 39.0826 46.2095 39.5786 46.2095 40.1706C46.2095 40.5866 46.0975 40.9946 45.8735 41.3946C45.6655 41.7946 45.3615 42.1226 44.9615 42.3786C44.5775 42.6186 44.1455 42.7386 43.6655 42.7386C43.0575 42.7386 42.5455 42.5386 42.1295 42.1386C41.7295 41.7226 41.5215 41.2106 41.5055 40.6026C41.5055 40.2026 41.6095 39.8106 41.8175 39.4266C42.0255 39.0266 42.3215 38.6986 42.7055 38.4426C43.0895 38.1866 43.5295 38.0586 44.0255 38.0586Z" fill="white"/>
</svg>
