<svg xmlns="http://www.w3.org/2000/svg" data-name="Layer 1" viewBox="0 0 32 32" id="color-plate"><path d="M26.78,3.72A16.852,16.852,0,0,0,8.91,1.7a16.658,16.658,0,0,0-8.58,11A14.433,14.433,0,0,0,3.52,25.08a23.974,23.974,0,0,0-2.45,3.18C.01,29.94-.22,31.03.35,31.6a1.072,1.072,0,0,0,.79.29,7.443,7.443,0,0,0,3.57-1.71c.75-.55,1.51-1.18,2.21-1.81a20.668,20.668,0,0,0,4.07,2.45A13.064,13.064,0,0,0,15.76,32a6.844,6.844,0,0,0,.79-.05,2.982,2.982,0,0,0,2.72-2.51,4.593,4.593,0,0,0-.6-2.81,3.706,3.706,0,0,1-.52-2.3c.33-1.43,2.13-1.53,4.45-1.54a11.3,11.3,0,0,0,1.91-.08,9.428,9.428,0,0,0,7.48-8.79C32.14,10.35,30.19,6.54,26.78,3.72ZM6.85,27.09c-.25.23-.49.45-.72.65-2.72,2.41-4.7,3.35-5.07,3.16-.21-.39.72-2.35,3.12-5.05.19-.23.41-.47.64-.71q.405-.435.87-.9c.62-.62,1.2-1.16,1.76-1.65l.013-.011a4.931,4.931,0,0,0,1.9,1.9l-.007.008q-.735.84-1.65,1.77C7.42,26.55,7.13,26.83,6.85,27.09Zm5.16-6.32A16.426,16.426,0,0,1,10.026,23.7,3.935,3.935,0,0,1,8.242,21.92a17.8,17.8,0,0,1,2.808-1.93,1.694,1.694,0,0,0,.32.41A1.811,1.811,0,0,0,12.01,20.77ZM11.8,19c.01-.12.03-.24.05-.36a4.985,4.985,0,0,1,3.37-4.13,8.54,8.54,0,0,1,2.22-.4,3.126,3.126,0,0,0-.68,1.33,4.947,4.947,0,0,0-.1,1.2,5.548,5.548,0,0,1-.03.71,2.969,2.969,0,0,1-3.01,2.64c-.1,0-.2,0-.3-.01-.2-.01-.37-.04-.45-.05a4.224,4.224,0,0,1-.51-.11.644.644,0,0,1-.31-.15l-.06-.06A1.08,1.08,0,0,1,11.8,19Zm12.54,2.72a11.242,11.242,0,0,1-1.74.07c-2.06,0-4.89-.01-5.42,2.32a4.532,4.532,0,0,0,.58,2.93,3.812,3.812,0,0,1,.52,2.21,1.964,1.964,0,0,1-1.87,1.71,10.424,10.424,0,0,1-5.01-1.05,20.9,20.9,0,0,1-3.75-2.2c.27-.27.52-.51.76-.75a23.973,23.973,0,0,0,4.6-6,4.157,4.157,0,0,0,.54.03h.09a3.955,3.955,0,0,0,3.99-3.53,7.318,7.318,0,0,0,.03-.81,4.53,4.53,0,0,1,.07-.99c.15-.63.76-1.43,1.45-1.43a1.1,1.1,0,0,1,.18.02.5.5,0,0,0,.58-.4.375.375,0,0,0,.01-.1.492.492,0,0,0-.4-.48,9.371,9.371,0,0,0-4.64.29,6.048,6.048,0,0,0-4.11,5.38.2.2,0,0,0,.01.07,24.945,24.945,0,0,0-5.83,4.52q-.42.42-.81.84A13.345,13.345,0,0,1,1.31,12.91,15.614,15.614,0,0,1,9.36,2.59a15.246,15.246,0,0,1,6.83-1.58,15.663,15.663,0,0,1,9.95,3.48c3.17,2.62,4.99,6.13,4.85,9.39A8.377,8.377,0,0,1,24.34,21.72ZM20,3a3,3,0,1,0,3,3A3.009,3.009,0,0,0,20,3Zm0,5a2,2,0,1,1,2-2A2.006,2.006,0,0,1,20,8ZM11,4a3,3,0,1,0,3,3A3.009,3.009,0,0,0,11,4Zm0,5a2,2,0,1,1,2-2A2.006,2.006,0,0,1,11,9ZM6,11a3,3,0,1,0,3,3A3.009,3.009,0,0,0,6,11Zm0,5a2,2,0,1,1,2-2A2.006,2.006,0,0,1,6,16Zm20-6a3,3,0,1,0,3,3A3.009,3.009,0,0,0,26,10Zm0,5a2,2,0,1,1,2-2A2.006,2.006,0,0,1,26,15Z"></path></svg>