<svg xmlns="http://www.w3.org/2000/svg" enable-background="new 0 0 70 70" viewBox="0 0 70 70" id="graphics-card"><path d="M67,51.7H9.1c-0.6,0-1-0.4-1-1V18.3c0-0.6,0.4-1,1-1h48.4c0.3,0,0.5,0.1,0.7,0.3l9.5,9.5c0.2,0.2,0.3,0.4,0.3,0.7v22.8
				C68,51.2,67.6,51.7,67,51.7z M10.1,49.7H66V28.2l-8.9-8.9h-47V49.7z"></path><path d="M9.1 57.2c-.6 0-1-.4-1-1V14.8H3c-.6 0-1-.4-1-1s.4-1 1-1h6.1c.6 0 1 .4 1 1v42.3C10.1 56.7 9.6 57.2 9.1 57.2zM46.7 56.9h-31c-.6 0-1-.4-1-1v-5.2c0-.6.4-1 1-1h31c.6 0 1 .4 1 1v5.2C47.7 56.4 47.2 56.9 46.7 56.9zM16.6 54.9h29v-3.2h-29V54.9z"></path><path d="M19 56.9c-.6 0-1-.4-1-1v-2c0-.6.4-1 1-1s1 .4 1 1v2C20 56.4 19.6 56.9 19 56.9zM23.9 56.9c-.6 0-1-.4-1-1v-2c0-.6.4-1 1-1s1 .4 1 1v2C24.9 56.4 24.4 56.9 23.9 56.9zM28.7 56.9c-.6 0-1-.4-1-1v-2c0-.6.4-1 1-1s1 .4 1 1v2C29.7 56.4 29.3 56.9 28.7 56.9zM33.6 56.9c-.6 0-1-.4-1-1v-2c0-.6.4-1 1-1s1 .4 1 1v2C34.6 56.4 34.1 56.9 33.6 56.9zM38.4 56.9c-.6 0-1-.4-1-1v-2c0-.6.4-1 1-1s1 .4 1 1v2C39.4 56.4 39 56.9 38.4 56.9zM43.3 56.9c-.6 0-1-.4-1-1v-2c0-.6.4-1 1-1s1 .4 1 1v2C44.3 56.4 43.8 56.9 43.3 56.9z"></path><g><path d="M9.1,21.9H6.3c-0.6,0-1-0.4-1-1s0.4-1,1-1h2.8c0.6,0,1,0.4,1,1S9.6,21.9,9.1,21.9z"></path></g><g><path d="M9.1,26H6.3c-0.6,0-1-0.4-1-1s0.4-1,1-1h2.8c0.6,0,1,0.4,1,1S9.6,26,9.1,26z"></path></g><g><path d="M9.1,30.1H6.3c-0.6,0-1-0.4-1-1s0.4-1,1-1h2.8c0.6,0,1,0.4,1,1S9.6,30.1,9.1,30.1z"></path></g><g><path d="M9.1,38.3H6.3c-0.6,0-1-0.4-1-1s0.4-1,1-1h2.8c0.6,0,1,0.4,1,1S9.6,38.3,9.1,38.3z"></path></g><g><path d="M9.1,42.4H6.3c-0.6,0-1-0.4-1-1s0.4-1,1-1h2.8c0.6,0,1,0.4,1,1S9.6,42.4,9.1,42.4z"></path></g><g><path d="M38.2,39.6c-0.2,0-0.3,0-0.5-0.1l-5.2-2.9c-0.3-0.2-0.5-0.5-0.5-0.9c0-0.4,0.2-0.7,0.5-0.9l5.2-2.9c0.3-0.2,0.7-0.2,1,0
				c0.3,0.2,0.5,0.5,0.5,0.9v5.8c0,0.4-0.2,0.7-0.5,0.9C38.5,39.6,38.4,39.6,38.2,39.6z M35,35.7l2.2,1.2v-2.4L35,35.7z"></path><path d="M57.1,36.7H38.2c-0.6,0-1-0.4-1-1s0.4-1,1-1h18.9c0.6,0,1,0.4,1,1S57.7,36.7,57.1,36.7z"></path><path d="M53,41.7h-3.9c-0.6,0-1-0.4-1-1s0.4-1,1-1h3.1l1-4.2c0.1-0.5,0.7-0.9,1.2-0.7c0.5,0.1,0.9,0.7,0.7,1.2L54,41
				C53.9,41.4,53.5,41.7,53,41.7z"></path><path d="M51.7 36.7c-.4 0-.9-.3-1-.8l-1-4.2h-4.1c-.6 0-1-.4-1-1s.4-1 1-1h4.9c.5 0 .9.3 1 .8l1.2 5c.1.5-.2 1.1-.7 1.2C51.9 36.7 51.8 36.7 51.7 36.7zM59.8 39.1c-1.8 0-3.3-1.5-3.3-3.3 0-1.8 1.5-3.3 3.3-3.3s3.3 1.5 3.3 3.3C63.2 37.6 61.7 39.1 59.8 39.1zM59.8 34.4c-.7 0-1.3.6-1.3 1.3s.6 1.3 1.3 1.3 1.3-.6 1.3-1.3S60.6 34.4 59.8 34.4zM46.8 44.1c-1.8 0-3.3-1.5-3.3-3.3s1.5-3.3 3.3-3.3 3.3 1.5 3.3 3.3S48.6 44.1 46.8 44.1zM46.8 39.4c-.7 0-1.3.6-1.3 1.3s.6 1.3 1.3 1.3 1.3-.6 1.3-1.3S47.5 39.4 46.8 39.4z"></path><path d="M45.6,33.6h-3.2c-0.6,0-1-0.4-1-1v-3.8c0-0.6,0.4-1,1-1h3.2c0.6,0,1,0.4,1,1v3.8C46.6,33.2,46.2,33.6,45.6,33.6z
				 M43.4,31.6h1.2v-1.8h-1.2V31.6z"></path></g><g><path d="M28.7 26c-.6 0-1-.4-1-1v-1.2c0-.6.4-1 1-1s1 .4 1 1V25C29.7 25.5 29.3 26 28.7 26zM28.7 31c-.6 0-1-.4-1-1v-1.2c0-.6.4-1 1-1s1 .4 1 1V30C29.7 30.6 29.3 31 28.7 31zM28.7 36.1c-.6 0-1-.4-1-1v-1.2c0-.6.4-1 1-1s1 .4 1 1v1.2C29.7 35.6 29.3 36.1 28.7 36.1zM28.7 41.2c-.6 0-1-.4-1-1v-1.2c0-.6.4-1 1-1s1 .4 1 1v1.2C29.7 40.7 29.3 41.2 28.7 41.2zM28.7 46.2c-.6 0-1-.4-1-1V44c0-.6.4-1 1-1s1 .4 1 1v1.2C29.7 45.8 29.3 46.2 28.7 46.2zM23.6 36.1c-.6 0-1-.4-1-1v-1.2c0-.6.4-1 1-1s1 .4 1 1v1.2C24.6 35.6 24.1 36.1 23.6 36.1zM23.6 41.2c-.6 0-1-.4-1-1v-1.2c0-.6.4-1 1-1s1 .4 1 1v1.2C24.6 40.7 24.1 41.2 23.6 41.2zM23.6 46.2c-.6 0-1-.4-1-1V44c0-.6.4-1 1-1s1 .4 1 1v1.2C24.6 45.8 24.1 46.2 23.6 46.2zM18.4 36.1c-.6 0-1-.4-1-1v-1.2c0-.6.4-1 1-1s1 .4 1 1v1.2C19.4 35.6 18.9 36.1 18.4 36.1zM18.4 41.2c-.6 0-1-.4-1-1v-1.2c0-.6.4-1 1-1s1 .4 1 1v1.2C19.4 40.7 18.9 41.2 18.4 41.2zM18.4 46.2c-.6 0-1-.4-1-1V44c0-.6.4-1 1-1s1 .4 1 1v1.2C19.4 45.8 18.9 46.2 18.4 46.2zM13.2 36.1c-.6 0-1-.4-1-1v-1.2c0-.6.4-1 1-1s1 .4 1 1v1.2C14.2 35.6 13.8 36.1 13.2 36.1zM13.2 41.2c-.6 0-1-.4-1-1v-1.2c0-.6.4-1 1-1s1 .4 1 1v1.2C14.2 40.7 13.8 41.2 13.2 41.2zM13.2 46.2c-.6 0-1-.4-1-1V44c0-.6.4-1 1-1s1 .4 1 1v1.2C14.2 45.8 13.8 46.2 13.2 46.2z"></path></g></svg>