<?xml version="1.0" encoding="iso-8859-1"?>
<!-- Uploaded to: SVG Repo, www.svgrepo.com, Generator: SVG Repo Mixer Tools -->
<!DOCTYPE svg PUBLIC "-//W3C//DTD SVG 1.1//EN" "http://www.w3.org/Graphics/SVG/1.1/DTD/svg11.dtd">
<svg fill="#000000" height="800px" width="800px" version="1.1" id="Capa_1" xmlns="http://www.w3.org/2000/svg" xmlns:xlink="http://www.w3.org/1999/xlink" 
	 viewBox="0 0 198.686 198.686" xml:space="preserve">
<path d="M108.73,73.749v2.422c0,6.065-4.935,11-11,11h-7.775V62.749h7.775C103.796,62.749,108.73,67.684,108.73,73.749z
	 M143.178,62.749h-7.775v24.422h7.775c6.065,0,11-4.935,11-11v-2.422C154.178,67.684,149.244,62.749,143.178,62.749z
	 M186.761,15.352v144.456v9.125v14.4c0,8.465-6.887,15.352-15.352,15.352H27.277c-8.465,0-15.352-6.887-15.352-15.352v-14.4v-9.125
	V15.352C11.925,6.887,18.811,0,27.277,0h144.132C179.874,0,186.761,6.887,186.761,15.352z M125.404,92.171c0,2.761,2.239,5,5,5
	h12.775c11.58,0,21-9.42,21-21v-2.422c0-11.58-9.42-21-21-21h-12.775c-2.761,0-5,2.239-5,5V92.171z M79.955,92.171
	c0,2.761,2.239,5,5,5H97.73c11.58,0,21-9.42,21-21v-2.422c0-11.58-9.42-21-21-21H84.955c-2.761,0-5,2.239-5,5V92.171z
	 M34.507,92.171c0,2.761,2.239,5,5,5s5-2.239,5-5V79.96h18.775v12.211c0,2.761,2.239,5,5,5s5-2.239,5-5V57.749c0-2.761-2.239-5-5-5
	s-5,2.239-5,5V69.96H44.507V57.749c0-2.761-2.239-5-5-5s-5,2.239-5,5V92.171z M176.761,159.808c0-2.951-2.401-5.352-5.352-5.352
	H27.277c-2.951,0-5.352,2.401-5.352,5.352v23.525c0,2.951,2.401,5.352,5.352,5.352h144.132c2.951,0,5.352-2.401,5.352-5.352V159.808
	z M41.086,166.571h-0.254c-2.761,0-5,2.239-5,5s2.239,5,5,5h0.254c2.761,0,5-2.239,5-5S43.847,166.571,41.086,166.571z
	 M159.542,166.571h-12.326c-2.761,0-5,2.239-5,5s2.239,5,5,5h12.326c2.761,0,5-2.239,5-5S162.303,166.571,159.542,166.571z"/>
</svg>