<svg xmlns="http://www.w3.org/2000/svg" width="16" height="16" id="hardware"><path d="M2.092 0C1.537 0 1 .406 1 1v14c0 .594.537 1 1.092 1h11.816c.555 0 1.092-.406 1.092-1V1c0-.594-.537-1-1.092-1H2.092zM2 1c0 .04-.009 0 .092 0H3v12.068c0 .494.397.932.908.932H14v1c0-.04.009 0-.092 0H2.092c-.1 0-.092-.04-.092 0V1zm2 0h9.908c.1 0 .092.04.092 0v12H4V1zm5 2C6.797 3 5 4.797 5 7c0 2.203 1.797 4 4 4 2.203 0 4-1.797 4-4 0-2.203-1.797-4-4-4zm0 1c1.663 0 3 1.337 3 3s-1.337 3-3 3-3-1.337-3-3 1.337-3 3-3zm0 1c-1.099 0-2 .901-2 2s.901 2 2 2 2-.901 2-2-.901-2-2-2zm0 1c.558 0 1 .442 1 1s-.442 1-1 1-1-.442-1-1 .442-1 1-1z" color="#000" font-family="sans-serif" font-weight="400" overflow="visible" style="line-height:normal;text-indent:0;text-align:start;text-decoration-line:none;text-decoration-style:solid;text-decoration-color:#000;text-transform:none;block-progression:tb;white-space:normal;isolation:auto;mix-blend-mode:normal;solid-color:#000;solid-opacity:1"></path></svg>