<svg xmlns="http://www.w3.org/2000/svg" enable-background="new 0 0 64 64" viewBox="0 0 64 64" id="cpu-processor"><path d="M45.21,16.23H18.78c-1.41,0-2.55,1.15-2.55,2.56v26.43c0,1.41,1.14,2.55,2.55,2.55h9.49c0.01,0,0.01,0,0.02,0
		s0.01,0,0.02,0h6.82c0.01,0,0.01,0,0.02,0c0.01,0,0.01,0,0.02,0h10.05c1.41,0,2.56-1.14,2.56-2.55V18.79
		C47.77,17.38,46.62,16.23,45.21,16.23z M45.81,45.22c0,0.33-0.27,0.6-0.6,0.6h-9.09v-2.33l5.85-5.85h3.84V45.22z M18.18,18.79
		c0-0.33,0.27-0.6,0.6-0.6h14.37v1.21l-3.19,3.17h-2.52c-0.4-1.12-1.47-1.92-2.73-1.92c-1.6,0-2.89,1.3-2.89,2.9
		c0,1.6,1.3,2.89,2.89,2.89c1.26,0,2.34-0.81,2.74-1.93h2.91c0.26,0,0.51-0.1,0.69-0.28l3.76-3.73c0.19-0.19,0.29-0.44,0.29-0.69
		v-1.62h10.1c0.33,0,0.6,0.27,0.6,0.6v7.64h-8.03c-0.4-1.16-1.51-1.99-2.8-1.99c-1.63,0-2.97,1.33-2.97,2.96
		c0,1.63,1.34,2.96,2.97,2.96c1.29,0,2.4-0.83,2.8-1.99h8.03v2.64h-6.22c-0.25,0-0.49,0.09-0.67,0.27L35.2,34.8h-3.12
		c-0.4-1.14-1.49-1.96-2.76-1.96c-1.62,0-2.94,1.32-2.94,2.94c0,1.61,1.32,2.93,2.94,2.93c1.27,0,2.36-0.82,2.76-1.96h3.51
		c0.25,0,0.49-0.1,0.67-0.27l3.72-3.51h5.83v2.71h-4.25c-0.26,0-0.51,0.1-0.69,0.29l-6.42,6.42c-0.18,0.18-0.28,0.43-0.28,0.69v2.73
		h-4.9v-2.77c0-0.26-0.1-0.5-0.28-0.69l-5.21-5.29v-3.26c1.14-0.4,1.96-1.49,1.96-2.77c0-1.61-1.32-2.93-2.93-2.93
		c-1.62,0-2.94,1.32-2.94,2.93c0,1.28,0.82,2.37,1.96,2.77v3.66c0,0.26,0.1,0.5,0.28,0.69l5.21,5.29v2.37h-8.53
		c-0.33,0-0.6-0.27-0.6-0.6V18.79z"></path><path d="M55.58,34.13c0.27,0,0.48-0.23,0.48-0.49v-0.66h6.96c0.54,0,0.98-0.44,0.98-0.98s-0.44-0.98-0.98-0.98h-6.96v-0.67
		c0-0.27-0.22-0.48-0.48-0.48h-1.03v-9.26h1.03c0.27,0,0.48-0.22,0.48-0.48v-0.66h6.96c0.54,0,0.98-0.44,0.98-0.98
		c0-0.54-0.44-0.98-0.98-0.98h-6.96v-0.66c0-0.27-0.22-0.48-0.48-0.48h-1.03v-0.3c0-0.26-0.1-0.51-0.28-0.69l-5.41-5.4
		c-0.19-0.19-0.44-0.29-0.69-0.29h-0.54V8.67c0-0.27-0.22-0.48-0.48-0.48h-0.66V1.23c0-0.54-0.44-0.98-0.98-0.98
		c-0.54,0-0.98,0.44-0.98,0.98v6.96h-0.66c-0.27,0-0.48,0.22-0.48,0.48V9.7l-9.26,0V8.67c0-0.27-0.22-0.48-0.48-0.48h-0.66V1.23
		c0-0.54-0.44-0.98-0.98-0.98c-0.54,0-0.98,0.44-0.98,0.98v6.96h-0.66c-0.27,0-0.48,0.22-0.48,0.48V9.7l-9.26,0V8.67
		c0-0.27-0.22-0.48-0.49-0.48h-0.66V1.23c0-0.54-0.44-0.98-0.98-0.98c-0.54,0-0.98,0.44-0.98,0.98v6.96h-0.67
		c-0.27,0-0.48,0.22-0.48,0.48V9.7h-0.04c-0.23,0.02-0.44,0.11-0.6,0.25l-5.95,5.4c-0.21,0.19-0.32,0.45-0.32,0.73v0.3H8.42
		c-0.27,0-0.48,0.22-0.48,0.48v0.66H0.98C0.44,17.52,0,17.96,0,18.5c0,0.54,0.44,0.98,0.98,0.98h6.96v0.66
		c0,0.27,0.22,0.48,0.48,0.48h1.04v9.26H8.42c-0.27,0-0.48,0.22-0.48,0.48v0.67H0.98C0.44,31.02,0,31.46,0,32s0.44,0.98,0.98,0.98
		h6.96v0.66c0,0.27,0.22,0.49,0.48,0.49h1.04v9.25H8.42c-0.27,0-0.48,0.22-0.48,0.49v0.66H0.98C0.44,44.53,0,44.96,0,45.5
		s0.44,0.98,0.98,0.98h6.96v0.67c0,0.27,0.22,0.48,0.48,0.48h1.04l0.01,0.2l0.03,0.03c0.04,0.16,0.13,0.31,0.24,0.43l5.72,5.72
		c0.18,0.18,0.43,0.28,0.69,0.28h0.22v1.04c0,0.27,0.22,0.48,0.48,0.48h0.67v6.96c0,0.54,0.44,0.98,0.98,0.98
		c0.54,0,0.98-0.44,0.98-0.98v-6.96h0.66c0.28,0,0.49-0.22,0.49-0.48v-1.04h9.26v1.04c0,0.27,0.22,0.48,0.48,0.48h0.66v6.96
		c0,0.54,0.44,0.98,0.98,0.98c0.54,0,0.98-0.44,0.98-0.98v-6.96h0.66c0.27,0,0.48-0.22,0.48-0.48v-1.04h9.26v1.04
		c0,0.27,0.22,0.48,0.48,0.48h0.66v6.96c0,0.54,0.44,0.98,0.98,0.98c0.54,0,0.98-0.44,0.98-0.98v-6.96h0.66
		c0.27,0,0.48-0.22,0.48-0.48v-1.04h0.17c0.25,0,0.48-0.09,0.69-0.28l5.78-5.78c0.13-0.13,0.21-0.29,0.25-0.47l0.03-0.07v-0.06h1.03
		c0.27,0,0.48-0.22,0.48-0.48v-0.67h6.96c0.54,0,0.98-0.44,0.98-0.98s-0.44-0.98-0.98-0.98h-6.96v-0.66c0-0.28-0.22-0.49-0.48-0.49
		h-1.03v-9.25H55.58z M16.55,52.34l-5.15-5.15V16.52l5.36-4.86h31l4.82,4.82v30.66l-5.2,5.21H16.55z"></path></svg>