<svg xmlns="http://www.w3.org/2000/svg" viewBox="0 0 64 64" id="globe"><path fill="#4d4d4d" d="M44.94336,2.98047c-2.101-1.19953-3.79785,4.83972-.73383,2.79291l.395-.5644C62.33643,18.79865,54.37238,47.21,32.093,49.48688a3.022,3.022,0,0,0-4.92542.01922,24.68158,24.68158,0,0,1-10.93463-3.77856c1.3833-1.14484.7818-3.50342-.9729-2.09985-5.16193,4.57074,8.20233,7.34478,11.37817,7.8302v2.74426c-7.01214-1.60852-10.04931,5.319-4.00024,7.00091l15.00024-.00091c2.14923.02246,3.2815-2.04865,2.99982-4.00006.08191-4.01856-5.5274-2.84906-7.99982-2.99994V51.44031C57.04193,48.6048,64.97662,17.10748,44.94336,2.98047ZM30.63818,54.20215h-2C27.92377,48.82324,31.35693,48.846,30.63818,54.20215Zm8,3c.035.76459.085,2.0177-1.00012,1.99994l-14.99988.00006c-1.43463.015-1.428-3.01483-.00012-3C23.28839,56.6369,39.421,55.122,38.63818,57.20215Z"></path><path fill="#4d4d4d" d="M43.22766,42.07605C76.91681,5.75757,1.54694-17.66925,8.59448,31.18335,12.79767,45.89978,31.35767,51.69531,43.22766,42.07605ZM36.9361,43.41522c-4.8538-2.84216,1.13018-5.54811.21343-9.11544-1.637-4.73789-5.611-3.65256-.91064-9.32432,2.48712-4.01355,10.13416,4.52173,12.50665,5.41443A19.87809,19.87809,0,0,1,36.9361,43.41522ZM47.81268,17.96857c-.02972.01916-.052.04883-.0802.07092a2.03311,2.03311,0,0,0-.86657-.909c.71009-1.34521-3.48842-2.054-4.38157-2.31632a.35325.35325,0,0,0-.271.64262,18.63012,18.63012,0,0,0,2.4057,1.36633c-1.55684.20087-3.14659,1.79939-4.74377,1.04533a.71732.71732,0,0,1-.31031-.98887,4.43375,4.43375,0,0,0,.54041-1.73426c.1307-.92392-1.45361-2.1481-.16781-2.69228.8383-.34563,1.75208.47107,2.53634.021a3.22381,3.22381,0,0,0,1.68017-1.116,20.85293,20.85293,0,0,1,1.93769,2.44324c-.538-.173-2.69983-1.2135-2.68585-.15235.27207.64643,1.0286.88075,1.5909,1.221.67308.3,1.39784.82046,2.15452.67018a20.32528,20.32528,0,0,1,1.07312,2.32922A.6293.6293,0,0,0,47.81268,17.96857ZM13.2666,13.45508a19.98351,19.98351,0,0,1,12.68762-8.153C30.86536,9.294,33.595,7.89825,28.59741,14.14819c-1.913,2.04908-4.32873-3.745-7.47387.24475-.7428.77491-1.93018,3.90046-3.44709,2.75538l-4.67492-3.27247C13.09363,13.73724,13.17084,13.59186,13.2666,13.45508Zm-1.29053,2.1441c11.06562,8.72589,6.9842-.088,12.51722-.3656C30.04541,20.46045,37.86469,7.845,28.97888,4.978a19.1767,19.1767,0,0,1,14.22144,5.4057,4.21792,4.21792,0,0,0-1.18927.91821c-1.7908-1.092-4.91076-.01847-4.31782,2.39516.12623.46989.63306,1.03959.58277,1.52818a2.92336,2.92336,0,0,1-.34552.82037,2.45536,2.45536,0,0,0,.61982,3.11181c1.43133,1.16676,3.18.70375,4.7141.013,1.30906-.63356,3.02767-1.33558,4.21857-.06543.39156.55594.733,1.61026,1.5791,1.45807a18.63759,18.63759,0,0,1,.16114,7.71948c-5.507-3.35833-11.61725-11.29443-16.33863-2.00293-3.62353,4.95459,4.11249,6.4961,1.83612,10.41468-1.95746,2.12493-2.45117,5.46722-.10418,7.47174a20.03447,20.03447,0,0,1-8.40772.34887c3.05634-4.02636-3.0094-5.35492-1.4292-8.38989,1.82123-1.89154,2.30634-5.16241-.12091-6.78424C12.69012,19.24,16.37457,31.64954,9.70856,26.17548A19.72276,19.72276,0,0,1,11.97607,15.59918Zm6.63416,11.948c.50037.35138.95428.66718,1.3775.96057-.4821.27223-.4935.90753-.6918,1.37444-.37924,1.48293-1.29981,2.99773-.98382,4.55266a.58975.58975,0,0,0,.97952.25863c1.16688-1.31327,1.26138-3.76386,1.748-5.45807.43671.30158.82178.56806,1.16.80518a11.33236,11.33236,0,0,0-1.18205,4.6363c1.22293,1.87057,2.08336-3.10221,2.246-3.86585a6.223,6.223,0,0,1,.76019.65966c-.56527.21939-.24492,1.15086.32849.93927-.19134.8039-1.34234,1.93274-1.8645,5.53437.29688,2.33654,4.17713,3.63421,1.614,6.09307A19.89922,19.89922,0,0,1,10.08258,28.87958C14.24249,32.15009,15.56732,25.93134,18.61023,27.54718Z"></path><path fill="#4d4d4d" d="M40.04126 38.49335c.82782.231 1.66656-.74964 2.20251-1.27448 1.50453-1.61915 3.29121-3.587 3.4205-5.88462a.54764.54764 0 00-.92019-.38113c-1.37782 1.53939-2.16607 3.511-3.76426 4.925C40.31458 36.54956 38.5406 37.72389 40.04126 38.49335zM38.40448 39.82788a.56663.56663 0 00.801-.80106A.56663.56663 0 0038.40448 39.82788zM18.08356 13.49481c.55892-.35227.71006-1.02759.97327-1.56872A11.0374 11.0374 0 0122.30958 8.1145a.48093.48093 0 00-.36876-.87458 7.45249 7.45249 0 00-4.24234 3.89216c-.30547.6391-.72 1.48407-.33648 2.17358A.53432.53432 0 0018.08356 13.49481z"></path></svg>