<!DOCTYPE svg PUBLIC "-//W3C//DTD SVG 1.1//EN" "http://www.w3.org/Graphics/SVG/1.1/DTD/svg11.dtd">
<!-- Uploaded to: SVG Repo, www.svgrepo.com, Transformed by: SVG Repo Mixer Tools -->
<svg height="800px" width="800px" version="1.1" id="Layer_1" xmlns="http://www.w3.org/2000/svg" xmlns:xlink="http://www.w3.org/1999/xlink" viewBox="0 0 390.206 390.206" xml:space="preserve" fill="#000000">
<g id="SVGRepo_bgCarrier" stroke-width="0"/>
<g id="SVGRepo_tracerCarrier" stroke-linecap="round" stroke-linejoin="round"/>
<g id="SVGRepo_iconCarrier"> <path style="fill:#3e3e3d;" d="M368.549,82.941c0,25.988-38.465,89.988-61.22,124.638c-22.756-34.715-61.22-98.651-61.22-124.638 c-0.517-33.616,27.087-61.22,61.22-61.22S368.549,49.325,368.549,82.941z"/> <path style="fill:#737678;" d="M185.923,337.648c-11.378-31.418-33.034-37.366-33.616-37.366 c0.517-0.517,12.994-12.477,12.994-22.238c0.517-26.57-28.186-28.186-34.133-28.703c0,0-20.04-1.099-25.471-10.279 c-3.232-5.43-2.133-13.576,2.198-17.325c0.517-0.517,6.529-4.848,8.663-7.046c6.529-7.564,7.564-17.325,8.145-23.855 c0.517-5.947,1.099-15.709-4.848-23.855c-4.331-7.046-17.325-11.378-17.325-11.378c-20.04-8.663-32.517-32-29.285-53.139 c13.253-11.636,28.703-21.01,45.576-27.41c16.873-6.465,35.168-9.956,54.109-9.956c14.61,0,29.285,2.198,42.796,6.529 c-9.244,13.576-23.273,23.855-39.564,28.703c-9.244,3.232-12.477,11.378-8.663,18.424c10.861,23.337,39.564,29.802,53.657,33.034 c4.331,1.099,9.762,2.198,11.895,4.848c2.198,2.198,0,7.046-2.715,11.378c-5.43,9.244-29.802,6.529-38.465,20.622 c-4.331,7.046-2.133,18.941-2.133,20.04c-0.517,0.517-9.762,4.331-10.279,14.093c-1.099,18.424,17.907,27.669,18.424,28.703 s-3.232,14.61-0.517,23.273c2.715,9.244,10.861,16.291,21.657,18.941c5.43,1.099,18.424,2.133,20.04,2.133 c17.907,1.616,34.715,12.477,43.378,27.669c-23.855,24.372-55.855,40.663-91.604,44.477 C190.255,357.689,189.156,347.927,185.923,337.648z"/> <path style="fill:#3e3e3d;" d="M145.261,320.84c-3.814-1.616-9.244-4.331-12.994-9.762c-4.848-8.145-2.715-18.424,4.848-27.087 c0,0,5.947-6.529,5.947-7.564c-1.099-3.814-12.477-4.848-16.808-4.848c-18.424-2.198-31.418-8.663-39.046-19.523 c-9.762-14.093-6.529-34.715,6.529-46.093c1.099-1.099,5.947-4.331,6.529-4.848c2.198-2.198,2.198-7.046,2.715-11.378 c0-2.715,0.517-7.564-0.517-9.244c-0.517-1.099-8.663-4.331-8.663-4.331c-20.622-9.244-35.749-29.285-40.663-51.459 c-19.523,25.471-31.418,57.471-31.418,92.703c0,81.842,65.034,149.01,146.36,151.725c-0.517-8.663-1.616-16.808-3.814-24.372 C158.255,325.172,145.261,320.84,145.261,320.84z"/> <g> <path style="fill:#FFFFFF;" d="M315.992,233.051c-3.814,5.43-13.576,6.529-17.907,0c-4.331-5.947-24.954-36.331-43.895-69.883 c-1.099,7.564-4.848,14.61-9.244,20.04c-8.663,10.279-34.133,16.808-35.232,16.291c4.331,23.273-8.663,27.087-8.663,27.087 c1.099,1.099,12.477,8.145,15.709,16.291c3.232,8.663,0,23.855,0,25.471c0.517,1.099,2.715,3.232,5.947,3.814 c3.232,0.517,14.61,1.099,16.808,1.616c22.238,2.198,43.378,14.093,56.372,32c17.325-24.372,28.186-53.657,28.703-86.174 C320.84,226.521,317.608,231.434,315.992,233.051z"/> <path style="fill:#FFFFFF;" d="M240.097,135.499c-7.046-15.192-12.477-29.285-15.192-41.18 c-9.244,9.762-20.622,17.325-32.517,22.756c7.564,7.046,20.04,10.861,33.034,13.576 C229.818,131.685,235.184,132.784,240.097,135.499z"/> </g> <path style="fill:#030303;" d="M390.206,82.941C390.206,36.848,352.84,0,307.265,0c-35.232,0-65.034,21.657-77.511,52.558 c-17.907-5.947-36.848-9.244-56.372-9.244C78.028,43.378,0,121.406,0,216.76s78.028,173.446,173.446,173.446 s173.446-78.028,173.446-173.446c0-9.244-0.517-18.424-2.198-27.669C365.834,154.44,390.206,108.929,390.206,82.941z M21.657,216.76 c0-34.715,11.895-66.651,31.418-92.703c4.848,22.238,20.04,42.279,40.663,51.459c0,0,7.564,3.232,8.663,4.331 c1.099,1.616,0.517,6.529,0.517,9.244c-0.517,3.814-0.517,9.244-2.715,11.378c-0.517,0.517-5.43,4.331-6.529,4.848 c-12.994,11.378-15.709,32-6.529,46.093c7.564,10.861,20.622,17.325,39.046,19.523c4.848,0.517,16.291,1.099,16.808,4.848 c0,1.099-5.947,7.564-5.947,7.564c-8.145,9.244-9.762,18.941-4.848,27.087c3.232,5.947,9.244,8.145,12.994,9.762 c0,0,12.994,4.331,18.941,23.273c2.715,7.564,3.232,16.291,3.814,24.372C86.691,365.834,21.657,298.602,21.657,216.76z M152.307,300.218c0.517-0.517,12.994-12.477,12.994-22.238c0.517-26.57-28.186-28.186-34.133-28.703c0,0-20.04-1.099-25.471-10.279 c-3.232-5.43-2.198-13.576,2.198-17.325c0.517-0.517,6.529-4.848,8.663-7.046c6.529-7.564,7.564-17.325,8.145-23.855 c0.517-5.947,1.099-15.709-4.848-23.855c-4.331-7.046-17.325-11.378-17.325-11.378c-20.04-8.663-32.517-32-29.285-53.139l0,0 c26.57-23.273,61.802-37.366,99.75-37.366c14.61,0,29.285,2.198,42.796,6.529c-9.244,13.576-23.273,23.855-39.564,28.703 c-9.244,3.232-12.477,11.378-8.663,18.424c10.861,23.273,39.564,29.802,53.657,33.034c4.331,1.099,9.762,2.198,11.895,4.848 c2.198,2.198,0,7.046-2.715,11.378c-5.43,9.244-29.802,6.529-38.465,20.622c-4.331,7.046-2.198,18.941-2.198,20.04 c-0.517,0.517-9.762,4.331-10.279,14.093c-1.099,18.424,17.907,27.669,18.424,28.703c0.517,1.099-3.232,14.61-0.517,23.273 c2.715,9.244,10.861,16.291,21.657,18.941c5.43,1.099,18.424,2.198,20.04,2.198c17.907,1.616,34.715,12.477,43.378,27.669 c-23.855,24.372-55.855,40.663-91.604,44.412c-0.517-10.279-1.616-20.04-4.848-30.319 C174.481,306.23,152.824,300.218,152.307,300.218z M307.265,21.657c34.133,0,61.22,27.669,61.22,61.22 c0,25.988-38.465,89.988-61.22,124.638c-22.756-34.715-61.22-98.651-61.22-124.638C245.527,49.325,273.131,21.657,307.265,21.657z M225.422,94.319c2.198,11.895,8.145,25.988,15.192,41.18c-4.848-2.715-10.279-3.814-14.61-4.848 c-12.994-2.715-25.471-6.529-33.034-13.576C204.865,111.644,215.725,104.081,225.422,94.319z M240.097,273.713 c-2.198,0-13.576-0.517-16.808-1.616c-3.232-1.099-5.43-2.715-5.947-3.814c-0.517-1.099,2.715-16.808,0-25.471 c-3.232-8.663-14.61-15.192-15.709-16.291c0,0,12.994-3.814,8.663-27.087c1.099,0.517,26.57-5.947,35.232-16.291 c4.848-5.43,8.145-12.477,9.244-20.04c18.424,33.616,39.564,64.517,43.895,69.883c4.331,6.529,14.093,5.43,17.907,0 c1.616-2.198,4.848-6.529,9.244-13.576c-0.517,32-11.378,61.802-28.703,86.174C282.893,287.806,262.335,275.329,240.097,273.713z"/> <path style="fill:#FFFFFF;" d="M307.265,56.889c-14.093,0-25.988,11.895-25.988,25.988s11.895,25.988,25.988,25.988 c14.093,0,25.988-11.895,25.988-25.988S321.358,56.889,307.265,56.889z"/> <path style="fill:#030303;" d="M307.265,35.232c-26.57,0-47.709,21.657-47.709,47.709c0,26.57,21.657,47.709,47.709,47.709 c26.57,0,47.709-21.657,47.709-47.709S333.317,35.232,307.265,35.232z M307.265,108.929c-14.093,0-25.988-11.895-25.988-25.988 s11.895-25.988,25.988-25.988c14.093,0,25.988,11.895,25.988,25.988S321.358,108.929,307.265,108.929z"/> </g>
</svg>