<svg xmlns="http://www.w3.org/2000/svg" viewBox="0 0 24 24" id="warranty"><path d="m18.75,9c0-3.722-3.028-6.75-6.75-6.75s-6.75,3.028-6.75,6.75c0,1.871.766,3.566,2,4.79v6.12c0,.672.332,1.271.889,1.601.516.307,1.14.319,1.667.032l2.194-2.098,2.029,1.977.165.122c.254.138.53.207.806.207.297,0,.593-.08.861-.239.557-.331.889-.929.889-1.601v-6.12c1.234-1.224,2-2.919,2-4.79Zm-12,0c0-2.895,2.355-5.25,5.25-5.25s5.25,2.355,5.25,5.25-2.355,5.25-5.25,5.25-5.25-2.355-5.25-5.25Zm8.5,10.91c0,.204-.119.29-.155.312-.047.029-.088.032-.12.027l-2.228-2.17-.165-.122c-.364-.198-.801-.198-1.165,0l-2.393,2.292c-.031.005-.073.002-.12-.027-.036-.021-.155-.108-.155-.312v-4.997c.965.532,2.072.837,3.25.837s2.285-.305,3.25-.837v4.997Zm.204-11.312l-3.648,2.772c-.225.17-.491.253-.755.253-.328,0-.653-.127-.896-.376l-1.682-1.723c-.29-.296-.284-.771.013-1.061.297-.29.771-.283,1.061.013l1.528,1.565,3.472-2.639c.33-.25.801-.187,1.051.144.25.33.187.8-.144,1.051Z"></path></svg>